<svg width="100" height="100" viewBox="0 0 100 100" fill="none" xmlns="http://www.w3.org/2000/svg">
<path fill-rule="evenodd" clip-rule="evenodd" d="M39.7719 18.321C35.1659 16.662 29.6309 15.488 24.8889 17.172C20.7079 18.657 18.2289 23.333 21.3009 27.236C24.5509 31.367 29.6799 33.208 34.1739 35.628C36.4029 36.828 38.5579 38.182 40.7049 39.549C34.7449 37.847 28.7649 36.198 22.5019 37.233C20.7719 37.519 18.8619 38.552 17.6659 39.989C16.3569 41.563 15.8599 43.585 17.0989 45.675C18.1749 47.49 19.9899 48.567 21.9299 49.244C21.1249 50.105 20.3869 51.039 19.8549 52.077C18.6329 54.461 18.5449 56.517 19.1479 58.209C19.7139 59.797 20.9069 61.086 22.4759 62.023C24.6729 63.337 27.6189 63.959 30.4109 63.798C34.2369 63.579 39.0159 61.679 43.2439 58.935C44.2289 58.296 45.1829 57.612 46.0889 56.893C45.0389 59.4 44.3449 62.045 44.2249 64.895C43.6499 78.621 55.0129 88.614 66.9659 92.572C67.4899 92.746 68.0559 92.461 68.2289 91.937C68.4029 91.413 68.1179 90.847 67.5939 90.674C56.4419 86.981 45.6859 77.785 46.2239 64.978C46.4239 60.195 48.3949 56.044 50.8889 52.147L50.9089 52.121L50.9709 52.041C50.8959 54.536 50.8279 57.26 51.0749 59.838C51.3389 62.592 51.9679 65.182 53.2589 67.213C54.0229 68.415 55.2839 69.405 56.5039 70.092C60.8089 72.515 64.3669 71.451 67.1089 68.896C69.5409 66.629 71.3009 63.11 72.2979 59.901C74.3489 59.337 77.3849 58.082 79.2719 56.397C80.4229 55.368 81.1529 54.168 81.2079 52.897C81.2619 51.632 80.6749 50.219 78.9249 48.791C78.1729 48.178 77.3829 47.609 76.5059 47.185C73.2249 45.599 69.5999 45.749 66.1049 45.631C63.7959 45.554 61.5429 45.356 59.5389 44.232C64.8059 44.245 70.0599 44.143 75.0719 42.218C78.0819 41.061 79.5429 39.26 79.7279 37.41C79.9119 35.568 78.8339 33.506 76.3359 31.751C75.3129 31.032 74.1669 30.515 73.0369 29.983C73.1919 27.576 73.4039 25.145 73.3519 22.735C73.3109 20.836 72.8499 17.464 71.6639 15.072C70.8299 13.389 69.6219 12.194 68.0849 11.962C67.0619 11.808 65.8499 12.064 64.4549 13.013C63.7549 13.489 63.1849 14.142 62.6739 14.808C61.0309 16.95 59.7529 19.436 58.6609 22.055C59.2439 18.899 59.5029 15.746 58.8589 12.634C57.9739 8.35797 53.5119 5.49997 49.2849 7.04997C46.7689 7.97297 45.1069 9.93397 43.5759 12.044C42.1379 14.027 41.0729 16.249 39.7719 18.321ZM54.0609 34.92C54.3509 31.314 55.4009 27.64 56.2259 23.962C57.0459 20.305 57.6469 16.644 56.9009 13.039C56.2579 9.93197 53.0459 7.80097 49.9739 8.92797C47.8429 9.70897 46.4919 11.432 45.1949 13.219C43.6759 15.312 42.5809 17.677 41.1719 19.843C41.1659 19.864 41.1579 19.886 41.1499 19.907C41.0209 20.246 40.7279 20.475 40.3949 20.536C40.1319 20.6 39.8439 20.558 39.6019 20.395L39.5819 20.382C35.2939 18.779 30.0419 17.464 25.5589 19.057C22.6459 20.091 20.7319 23.28 22.8719 26C25.9519 29.913 30.8649 31.574 35.1219 33.867C39.3219 36.129 43.2609 38.931 47.3829 41.345C47.5329 41.395 47.6629 41.479 47.7689 41.586C48.1349 41.892 48.2389 42.428 47.9919 42.855C47.7139 43.332 47.1019 43.494 46.6249 43.217L46.6209 43.215C38.7659 41.365 31.0569 37.846 22.8279 39.206C21.5319 39.42 20.0989 40.191 19.2039 41.268C18.4229 42.207 18.0799 43.408 18.8189 44.655C19.8479 46.391 21.7819 47.189 23.6669 47.686C24.0139 47.588 24.4029 47.681 24.6669 47.96C25.0469 48.361 25.0299 48.994 24.6289 49.374C23.5069 50.437 22.3479 51.598 21.6349 52.989C20.7269 54.761 20.5829 56.28 21.0309 57.537C21.4459 58.701 22.3519 59.619 23.5019 60.307C25.3819 61.431 27.9079 61.939 30.2959 61.802C33.8369 61.598 38.2429 59.797 42.1559 57.258C44.9249 55.461 47.4539 53.292 49.2359 51.028C49.7079 50.289 50.1989 49.558 50.6999 48.835C50.8119 48.63 50.9159 48.425 51.0129 48.22C51.0419 48.159 51.0759 48.103 51.1149 48.051C51.2569 47.672 51.6229 47.402 52.0509 47.402C52.6029 47.402 53.0509 47.85 53.0509 48.402C53.0509 48.474 53.0509 48.546 53.0509 48.619C53.0509 48.642 53.0509 48.665 53.0499 48.689C53.0309 51.868 52.7069 55.912 53.0659 59.647C53.2979 62.067 53.8119 64.355 54.9469 66.14C55.5399 67.072 56.5389 67.816 57.4859 68.349C60.8369 70.236 63.6099 69.423 65.7449 67.433C68.0579 65.277 69.6619 61.846 70.5319 58.829C70.6389 58.456 70.9459 58.194 71.3019 58.124C71.3729 58.086 71.4489 58.056 71.5299 58.035C73.3349 57.574 76.1989 56.46 77.9389 54.905C78.6439 54.275 79.1759 53.589 79.2089 52.811C79.2429 52.026 78.7469 51.227 77.6609 50.341C77.0299 49.826 76.3719 49.341 75.6359 48.985C72.6109 47.524 69.2589 47.738 66.0369 47.63C62.4229 47.509 58.9679 47.014 56.1349 44.105C56.0569 44.025 55.9959 43.936 55.9499 43.841C55.8159 43.671 55.7359 43.457 55.7359 43.223C55.7359 42.671 56.1839 42.223 56.7359 42.223C62.6909 42.223 68.6869 42.528 74.3549 40.351C76.4309 39.553 77.6099 38.487 77.7379 37.211C77.8659 35.928 76.9269 34.61 75.1859 33.387C74.0359 32.579 72.7129 32.059 71.4559 31.444C70.9599 31.202 70.7539 30.603 70.9969 30.107C71.0069 30.086 71.0179 30.066 71.0289 30.046C71.1809 27.634 71.4049 25.195 71.3529 22.778C71.3159 21.09 70.9259 18.087 69.8719 15.96C69.3619 14.93 68.7279 14.082 67.7869 13.94C67.1579 13.845 66.4379 14.083 65.5799 14.667C65.0559 15.023 64.6439 15.527 64.2609 16.026C60.1339 21.404 58.4239 29.03 56.0329 35.359C56.0289 35.42 56.0249 35.482 56.0219 35.544C55.9999 35.893 55.8009 36.191 55.5179 36.352C55.2469 36.579 54.8639 36.655 54.5119 36.518C53.9979 36.317 53.7429 35.737 53.9439 35.222C53.9829 35.122 54.0219 35.021 54.0609 34.92Z" fill="currentColor" stroke="currentColor"/>
</svg>
