<?xml version="1.0" ?><svg data-name="Layer 1" id="Layer_1" viewBox="0 0 32 32" fill="currentColor"><path d="M12.78629,31.23559a.59975.59975,0,0,1-.59961-.59961A10.95091,10.95091,0,0,0,.86442,19.31371a.59961.59961,0,1,1,0-1.19922A10.95091,10.95091,0,0,0,12.18668,6.79223a.59961.59961,0,0,1,1.19922,0A10.95092,10.95092,0,0,0,24.70817,18.11449a.59961.59961,0,0,1,0,1.19922A10.95092,10.95092,0,0,0,13.3859,30.636.59974.59974,0,0,1,12.78629,31.23559ZM4.93473,18.7141a11.75138,11.75138,0,0,1,7.85156,7.85156,11.75142,11.75142,0,0,1,7.85157-7.85156,11.7514,11.7514,0,0,1-7.85157-7.85156A11.75136,11.75136,0,0,1,4.93473,18.7141Z"/><path d="M24.89372,14.4475a.59973.59973,0,0,1-.59961-.59961,5.39837,5.39837,0,0,0-5.64258-5.6416.59961.59961,0,0,1,0-1.19922,5.39862,5.39862,0,0,0,5.64258-5.64258.59961.59961,0,1,1,1.19921,0A5.39862,5.39862,0,0,0,31.1359,7.00707a.59961.59961,0,1,1,0,1.19922,5.39837,5.39837,0,0,0-5.64258,5.6416A.59973.59973,0,0,1,24.89372,14.4475Zm-3.29-6.84082a6.3743,6.3743,0,0,1,3.29,3.29,6.37428,6.37428,0,0,1,3.29-3.29,6.37779,6.37779,0,0,1-3.29-3.29A6.37781,6.37781,0,0,1,21.60368,7.60668Z" fill="currentColor"/></svg>