
<svg xmlns="http://www.w3.org/2000/svg" xmlns:xlink="http://www.w3.org/1999/xlink" viewBox="0 0 24 24"><path d="M 14.149 9.472 L 14.149 3.612 C 14.149 2.722 13.427 2 12.537 2 L 12.537 2 C 11.647 2 10.926 2.722 10.926 3.612 L 10.926 8.446" fill="transparent" stroke-width="1.5" stroke="currentColor" stroke-linecap="round" stroke-miterlimit="10" stroke-dasharray=""></path><path d="M 16.346 12.841 L 18.522 5.589 C 18.644 5.183 18.598 4.745 18.395 4.372 C 18.191 4 17.847 3.725 17.439 3.609 L 17.439 3.609 C 17.033 3.493 16.598 3.544 16.23 3.75 C 15.862 3.956 15.591 4.301 15.478 4.707 L 14.148 9.471 M 7.62 9.25 L 8.675 11.591 C 9.014 12.397 8.649 13.326 7.852 13.686 C 7.055 14.045 6.117 13.704 5.737 12.916 L 4.68 10.575 C 4.314 9.763 4.676 8.808 5.488 8.443 C 6.299 8.077 7.254 8.438 7.62 9.25 Z" fill="transparent" stroke-width="1.5" stroke="currentColor" stroke-linecap="round" stroke-miterlimit="10" stroke-dasharray=""></path><path d="M 11.72 12.261 L 11.72 12.261 C 11.924 11.694 11.9 11.069 11.652 10.519 L 10.579 8.139 C 10.406 7.755 10.087 7.456 9.693 7.308 C 9.298 7.159 8.861 7.174 8.478 7.349 L 8.478 7.349 C 8.089 7.527 7.788 7.854 7.644 8.258 C 7.5 8.661 7.525 9.105 7.714 9.489 L 7.849 9.765" fill="transparent" stroke-width="1.5" stroke="currentColor" stroke-linecap="round" stroke-miterlimit="10" stroke-dasharray=""></path><path d="M 13.857 17.677 L 14.349 16.693 C 14.372 16.646 14.374 16.592 14.353 16.544 C 14.332 16.496 14.291 16.46 14.241 16.445 L 10.691 15.401 C 9.979 15.192 9.519 14.504 9.596 13.766 L 9.596 13.766 C 9.684 12.929 10.428 12.319 11.266 12.396 L 16.054 12.842 C 16.054 12.842 19.864 13.428 18.544 17.237 C 17.226 21.047 16.787 22.365 13.857 22.365 L 8.876 22.365 C 6.529 22.365 4.627 20.463 4.627 18.116 L 4.627 18.116 L 4.48 9.912" fill="transparent" stroke-width="1.5" stroke="currentColor" stroke-linecap="round" stroke-miterlimit="10" stroke-dasharray=""></path></svg>