<svg width="16" height="16" viewBox="0 0 16 16" fill="none" xmlns="http://www.w3.org/2000/svg" aria-hidden="true" style="translate: none; rotate: none; scale: none; transform: translate(0px, 0px);">
<path d="M15.6877 8.17185C15.6791 8.17473 15.6705 8.17665 15.6609 8.17953C15.658 8.18049 15.6551 8.18145 15.6522 8.18145C15.517 8.20831 15.3826 8.23805 15.2493 8.27067C11.8127 9.11398 9.10725 11.8243 8.27258 15.2656C8.2438 15.3826 8.21694 15.5007 8.19391 15.6196C8.19391 15.6244 8.19103 15.6292 8.19007 15.634C8.19007 15.635 8.19007 15.6369 8.18912 15.6378C8.06727 16.1032 7.95119 16.1204 7.82838 15.6877C7.79864 15.5352 7.76506 15.3846 7.72765 15.2349C6.88434 11.806 4.18173 9.10822 0.749986 8.26971C0.623346 8.23805 0.494787 8.20927 0.366229 8.18433C0.365269 8.18433 0.36335 8.18433 0.362391 8.18337C-0.112508 8.05865 -0.121143 7.94064 0.339366 7.81496C0.482315 7.7881 0.625265 7.75644 0.765336 7.72094C4.18749 6.87859 6.88242 4.18654 7.72669 0.765344C7.7641 0.614719 7.79768 0.463135 7.82647 0.310592C7.82742 0.310592 7.82742 0.308673 7.82742 0.307714C7.94447 -0.103866 8.05576 -0.102906 8.17376 0.312511C8.17664 0.321145 8.17856 0.32978 8.18144 0.339374C8.1824 0.342252 8.18336 0.34513 8.18336 0.348008C8.19199 0.379668 8.20063 0.413247 8.20926 0.449704C8.20926 0.450663 8.21022 0.451622 8.21022 0.452582C8.22174 0.513983 8.23612 0.574425 8.25052 0.635826C8.25148 0.640623 8.25243 0.646379 8.25339 0.652136C9.06792 4.13569 11.7955 6.88339 15.2656 7.72765C15.2685 7.72861 15.2723 7.72861 15.2752 7.72957C15.3884 7.7574 15.5026 7.7833 15.6177 7.80537C15.6177 7.80537 15.6183 7.80537 15.6196 7.80537C15.6196 7.80537 15.6292 7.80824 15.634 7.8092C15.634 7.8092 15.6369 7.8092 15.6378 7.81016C16.1031 7.93201 16.1204 8.04809 15.6877 8.17089V8.17185Z" fill="rgb(157, 149, 255)"></path>
</svg>